<svg width="179" height="163" viewBox="0 0 179 163" fill="none" xmlns="http://www.w3.org/2000/svg">
<path d="M108.811 7.53713C112.299 10.6113 114.593 14.3845 116.812 18.4244C116.953 18.6804 117.095 18.9364 117.236 19.1923C117.527 19.7172 117.817 20.2422 118.107 20.7673C119.682 23.6185 121.261 26.4678 122.925 29.2684C123.796 30.7393 124.642 32.2249 125.488 33.7104C126.719 35.8709 127.962 38.024 129.218 40.1703C130.565 42.4748 131.898 44.7877 133.23 47.1009C133.915 48.2896 134.601 49.4778 135.287 50.6661C135.56 51.1405 135.834 51.6149 136.108 52.0893C136.311 52.4416 136.311 52.4416 136.518 52.8009C143.703 65.2542 143.703 65.2542 150.888 77.7075C151.023 77.9423 151.158 78.1771 151.298 78.419C151.572 78.8938 151.846 79.3686 152.12 79.8433C152.801 81.0241 153.482 82.2048 154.164 83.3851C155.652 85.9607 157.134 88.5397 158.608 91.1231C159.661 92.9675 160.718 94.8088 161.781 96.6475C163.358 99.377 164.922 102.113 166.485 104.851C166.997 105.749 167.509 106.646 168.022 107.542C168.386 108.178 168.749 108.814 169.112 109.451C169.861 110.762 170.612 112.073 171.367 113.381C176.522 122.319 179.858 130.816 177.077 141.234C175.309 147.412 171.613 152.966 166.488 156.861C166.326 156.989 166.163 157.116 165.996 157.247C159.689 161.944 151.624 163.564 143.895 162.664C137.747 161.748 132.262 158.849 127.733 154.672C127.567 154.521 127.401 154.371 127.23 154.216C122.333 149.564 119.415 142.75 116.111 136.957C115.105 135.193 114.089 133.434 113.062 131.681C111.961 129.799 110.872 127.91 109.792 126.015C108.253 123.317 106.703 120.624 105.149 117.934C104.465 116.751 103.783 115.567 103.1 114.383C102.826 113.909 102.552 113.434 102.279 112.96C97.352 104.421 97.352 104.421 96.9412 103.708C96.6684 103.236 96.3956 102.763 96.1228 102.29C95.4244 101.08 94.7265 99.8692 94.0292 98.6583C93.7455 98.1659 93.4618 97.6736 93.1781 97.1812C93.0422 96.9451 92.9063 96.709 92.7662 96.4657C92.1537 95.4033 91.5384 94.3428 90.9116 93.2887C90.8079 93.1143 90.7043 92.9398 90.5975 92.7601C90.4079 92.4421 90.2175 92.1246 90.026 91.8077C89.4148 90.7833 89.4148 90.7833 89.4148 90.2977C89.2703 90.2977 89.1257 90.2977 88.9769 90.2977C88.8884 90.533 88.8884 90.533 88.7983 90.7731C88.5368 91.3975 88.2336 91.9597 87.8932 92.5446C87.7634 92.7685 87.6335 92.9925 87.4998 93.2232C87.3595 93.4635 87.2192 93.7039 87.0746 93.9515C86.9267 94.2061 86.7789 94.4607 86.6311 94.7154C86.4017 95.1107 86.1722 95.506 85.9424 95.9011C85.4357 96.7722 84.9319 97.645 84.43 98.5189C82.8993 101.184 81.3477 103.835 79.7768 106.477C78.3597 108.863 76.9729 111.267 75.5904 113.673C74.9036 114.868 74.2152 116.063 73.5266 117.257C73.3905 117.493 73.2544 117.729 73.1142 117.972C72.0774 119.769 71.0331 121.561 69.9864 123.352C69.0489 124.957 68.1183 126.567 67.1904 128.178C66.1323 130.014 65.0703 131.848 64.0018 133.679C63.813 134.003 63.813 134.003 63.6203 134.333C62.9931 135.407 62.3643 136.481 61.7327 137.553C61.4808 137.981 61.2291 138.41 60.9775 138.838C60.8524 139.051 60.7274 139.264 60.5986 139.483C59.8924 140.694 59.2055 141.913 58.5381 143.145C54.0031 151.517 48.3858 158.912 38.8688 161.757C33.8133 163.175 27.7404 163.487 22.6323 162.116C22.4897 162.079 22.3472 162.041 22.2003 162.002C14.825 160.015 8.51168 155.505 4.45866 148.979C3.80576 147.844 3.24264 146.669 2.70698 145.475C2.61384 145.268 2.61384 145.268 2.51882 145.057C-0.553624 138.102 -0.854018 130.048 1.83115 122.923C2.97663 119.964 4.43209 117.191 6.33178 114.642C6.66438 114.176 6.66438 114.176 6.85309 113.646C7.07357 113.101 7.32522 112.627 7.62843 112.124C7.73734 111.942 7.84626 111.76 7.95847 111.572C8.07705 111.375 8.19563 111.179 8.31781 110.976C9.4513 109.076 10.5624 107.164 11.6569 105.242C11.9551 104.718 12.2533 104.195 12.5516 103.671C12.6254 103.542 12.6993 103.412 12.7753 103.279C13.5378 101.941 14.3077 100.608 15.0782 99.275C16.1455 97.4284 17.2069 95.5786 18.2633 93.7257C19.5403 91.4862 20.8291 89.2541 22.1316 87.0293C23.1072 85.3603 24.0695 83.6839 25.0271 82.0046C26.5661 79.3059 28.1155 76.6133 29.6698 73.9234C30.3535 72.7401 31.0362 71.5562 31.7191 70.3724C31.9928 69.898 32.2664 69.4236 32.5402 68.9492C32.7434 68.5969 32.7434 68.5969 32.9507 68.2375C37.7404 59.9353 42.5302 51.6331 47.3199 43.3309C47.4554 43.0961 47.5909 42.8612 47.7305 42.6192C48.004 42.1452 48.2775 41.6711 48.5511 41.1971C49.2384 40.0058 49.9255 38.8144 50.612 37.6226C51.9357 35.3253 53.2627 33.0301 54.6003 30.7408C55.6993 28.8593 56.7943 26.9755 57.8847 25.0889C58.0185 24.8579 58.1522 24.6269 58.2901 24.3889C59.5922 22.1331 60.8137 19.8714 61.908 17.5075C62.7741 15.6706 63.6625 13.9722 64.8914 12.3482C65.0198 12.1718 65.1482 11.9954 65.2805 11.8137C69.4501 6.3218 75.147 2.7824 81.7512 0.962372C81.9015 0.920316 82.0518 0.878261 82.2067 0.834931C91.4076 -1.5976 101.728 1.48002 108.811 7.53713Z" fill="#3C8BD8"/>
<path d="M60.2932 20.8877C60.3655 20.8877 60.4377 20.8877 60.5122 20.8877C60.4313 21.9269 60.351 22.9453 60.0743 23.9531C57.7808 32.4451 61.0637 40.8837 65.2198 48.1216C65.6594 48.8774 66.1084 49.6275 66.5587 50.377C67.1555 51.3767 67.7401 52.3835 68.3263 53.3894C68.4555 53.611 68.5847 53.8325 68.7179 54.0608C69.8128 55.9395 70.8994 57.8229 71.9846 59.7072C72.8944 61.2859 73.8107 62.8606 74.7308 64.4332C75.9181 66.4631 77.0881 68.5024 78.2523 70.5455C79.2627 72.3183 80.2822 74.0855 81.3133 75.8464C82.573 77.9989 83.8196 80.1586 85.0514 82.3271C85.7636 83.5809 86.4804 84.8313 87.2115 86.0742C87.3455 86.3045 87.4796 86.5348 87.6177 86.7721C87.8697 87.2048 88.1241 87.6361 88.3812 88.0658C88.4922 88.2579 88.6033 88.4499 88.7177 88.6478C88.8158 88.814 88.9139 88.9803 89.015 89.1515C89.2452 89.7744 89.1708 90.1069 88.9769 90.7356C88.6847 91.2837 88.3839 91.8082 88.06 92.3368C87.8591 92.6714 87.6584 93.0061 87.4578 93.3409C87.3494 93.5209 87.2411 93.7009 87.1294 93.8864C86.5187 94.9066 85.9214 95.9347 85.323 96.9623C85.1941 97.1832 85.0652 97.4041 84.9324 97.6317C83.9714 99.2802 83.0179 100.933 82.066 102.587C80.9458 104.533 79.8122 106.47 78.6664 108.401C77.6116 110.181 76.5774 111.974 75.5451 113.767C74.6268 115.363 73.7028 116.954 72.7739 118.543C71.7148 120.356 70.6612 122.171 69.6127 123.99C69.4762 124.227 69.3397 124.463 69.1991 124.707C68.5127 125.898 67.8272 127.089 67.1425 128.281C65.7428 130.716 64.3299 133.141 62.8934 135.554C61.8112 137.372 60.7438 139.198 59.7048 141.041C59.5903 141.244 59.4759 141.447 59.358 141.657C58.7645 142.712 58.1758 143.77 57.5904 144.83C53.2985 152.569 47.6337 159.137 38.8688 161.757C33.8133 163.175 27.7404 163.487 22.6323 162.116C22.4897 162.079 22.3472 162.041 22.2003 162.002C14.825 160.015 8.51168 155.505 4.45866 148.979C3.80576 147.844 3.24264 146.669 2.70698 145.475C2.61384 145.268 2.61384 145.268 2.51882 145.057C-0.553624 138.102 -0.854018 130.048 1.83115 122.923C2.97663 119.964 4.43209 117.191 6.33178 114.642C6.66438 114.176 6.66438 114.176 6.85309 113.646C7.07357 113.101 7.32522 112.627 7.62843 112.124C7.73734 111.942 7.84626 111.76 7.95847 111.572C8.07705 111.376 8.19563 111.179 8.31781 110.976C9.4513 109.076 10.5624 107.164 11.6569 105.242C11.9551 104.718 12.2533 104.195 12.5516 103.671C12.6254 103.542 12.6993 103.412 12.7753 103.279C13.5378 101.941 14.3077 100.608 15.0782 99.275C16.1455 97.4284 17.2069 95.5786 18.2633 93.7258C19.5403 91.4863 20.8291 89.2542 22.1316 87.0294C23.1072 85.3604 24.0695 83.684 25.0271 82.0046C26.5661 79.3059 28.1155 76.6134 29.6698 73.9235C30.3535 72.7401 31.0362 71.5562 31.7191 70.3724C31.9928 69.898 32.2664 69.4236 32.5402 68.9492C32.6756 68.7144 32.8111 68.4795 32.9507 68.2376C40.1353 55.7843 40.1353 55.7843 47.3199 43.331C47.4554 43.0961 47.5909 42.8613 47.7305 42.6193C48.004 42.1452 48.2775 41.6712 48.5511 41.1971C49.2384 40.0058 49.9255 38.8144 50.612 37.6227C52.0591 35.1112 53.512 32.6032 54.9744 30.1006C55.9589 28.4148 56.9368 26.7254 57.912 25.0342C58.0495 24.7959 58.1869 24.5575 58.3286 24.3119C58.9856 23.1717 59.6414 22.0309 60.2932 20.8877Z" fill="#F9BB04"/>
<path d="M48.2941 109.71C53.7558 114.28 57.5323 119.816 58.9795 126.864C59.0328 127.103 59.0861 127.343 59.1411 127.589C60.0277 132.414 59.7634 138.1 57.9668 142.684C57.6396 143.472 57.6396 143.472 57.5913 144.219C57.4206 145.185 57.077 145.856 56.5846 146.693C56.4968 146.845 56.4089 146.997 56.3184 147.154C52.1479 154.242 46.044 159.866 37.9673 162.002C33.198 163.221 27.41 163.398 22.6323 162.116C22.4897 162.079 22.3472 162.041 22.2003 162.002C14.825 160.015 8.51168 155.505 4.45866 148.979C3.80576 147.844 3.24264 146.669 2.70698 145.475C2.64489 145.337 2.58279 145.199 2.51882 145.057C-0.553624 138.102 -0.854018 130.048 1.83115 122.923C2.99121 119.926 4.47328 116.554 6.64825 114.164C6.86502 114.164 7.08178 114.164 7.30512 114.164C7.39022 113.972 7.39022 113.972 7.47704 113.777C8.42206 112.042 10.3806 110.761 11.9033 109.566C12.0774 109.424 12.2516 109.283 12.431 109.137C22.8256 101.065 38.0731 101.68 48.2941 109.71Z" fill="#34A851"/>
</svg>
