<svg width="40" height="32" viewBox="0 0 40 32" fill="none" xmlns="http://www.w3.org/2000/svg">
<path d="M0 11.6777L7.78626 1.81991L10.3817 3.79147L6.71756 8.49289L20 1.81991L21.5267 4.70142L16.9466 6.9763L9.61832 16.2275L19.084 11.2227L28.855 0L31.2977 2.12322L27.1756 6.9763L35.7252 2.42654L37.2519 5.30806L21.374 13.8009L12.6718 23.6588L35.8779 10.6161L37.0992 9.25119L39.542 11.2227L39.084 11.981L39.3893 12.2844L38.1679 13.0427L30.229 22.7488L37.4046 18.654L38.7786 21.0806L40 21.8389L33.4351 32L30.687 30.3318L34.6565 23.9621L24.2748 30.1801L22.4427 27.1469L30.229 17.5924L6.56489 30.9384L5.9542 31.6967L3.35878 29.4218L13.2824 18.0474L4.27481 22.7488L3.66412 21.3839L2.29008 20.3223L10.0763 10.4645L1.52672 14.7109L0 11.6777Z" fill="white"/>
</svg>
